<svg xmlns="http://www.w3.org/2000/svg" viewBox="0 0 1200 630" width="1200" height="630" role="img" aria-label="برنامج الرواتب والموارد البشرية">
  <defs>
    <linearGradient id="bg7" x1="0" y1="0" x2="1" y2="1">
      <stop offset="0" stop-color="#030712"/>
      <stop offset="1" stop-color="#0b1220"/>
    </linearGradient>
    <radialGradient id="glow7" cx="0.2" cy="0.3" r="0.55">
      <stop offset="0" stop-color="#0dcaf0" stop-opacity="0.30"/>
      <stop offset="1" stop-color="#0dcaf0" stop-opacity="0"/>
    </radialGradient>
    <radialGradient id="glow7g" cx="0.82" cy="0.78" r="0.5">
      <stop offset="0" stop-color="#f57c00" stop-opacity="0.20"/>
      <stop offset="1" stop-color="#f57c00" stop-opacity="0"/>
    </radialGradient>
    <pattern id="dots7" width="36" height="36" patternUnits="userSpaceOnUse">
      <circle cx="2" cy="2" r="1.4" fill="#f57c00" fill-opacity="0.10"/>
    </pattern>
  </defs>
  <rect width="1200" height="630" fill="url(#bg7)"/>
  <rect width="1200" height="630" fill="url(#dots7)"/>
  <rect width="1200" height="630" fill="url(#glow7)"/>
  <rect width="1200" height="630" fill="url(#glow7g)"/>
  <rect x="14" y="14" width="1172" height="602" rx="18" fill="none" stroke="#f57c00" stroke-opacity="0.35" stroke-width="1.5"/>

  <g transform="translate(600 150)" stroke="#0dcaf0" stroke-width="3" stroke-linecap="round" stroke-linejoin="round" fill="none">
    <circle cx="-55" cy="-30" r="22"/>
    <path d="M-77 -8a22 22 0 0 0 44 0"/>
    <circle cx="15" cy="-30" r="22"/>
    <path d="M-7 -8a22 22 0 0 0 44 0"/>
    <circle cx="85" cy="-30" r="22"/>
    <path d="M63 -8a22 22 0 0 0 44 0"/>
  </g>
  <g transform="translate(600 175)" stroke="#f57c00" stroke-width="3" stroke-linecap="round" stroke-linejoin="round" fill="none">
    <ellipse cx="0" cy="12" rx="52" ry="30"/>
    <path d="M-30 12a30 30 0 0 1 60 0"/>
    <line x1="-20" y1="6" x2="20" y2="6"/>
    <line x1="-14" y1="18" x2="14" y2="18"/>
  </g>

  <text x="600" y="350" text-anchor="middle" direction="rtl" font-family="Cairo, Arial, sans-serif" font-size="40" font-weight="700" fill="#0dcaf0">كيف يوفّر برنامج الرواتب والموارد</text>
  <text x="600" y="408" text-anchor="middle" direction="rtl" font-family="Cairo, Arial, sans-serif" font-size="40" font-weight="700" fill="#0dcaf0">البشرية الوقت ويقلل الأخطاء</text>

  <g transform="translate(600 510)" stroke="#f57c00" stroke-width="2" fill="none" opacity="0.6">
    <line x1="-180" y1="0" x2="-40" y2="0"/>
    <line x1="40" y1="0" x2="180" y2="0"/>
    <circle cx="0" cy="0" r="5" fill="#0dcaf0" stroke="none"/>
  </g>
</svg>
