<svg xmlns="http://www.w3.org/2000/svg" viewBox="0 0 1200 630" width="1200" height="630" role="img" aria-label="Customer Retention">
  <defs>
    <linearGradient id="bg" x1="0" y1="0" x2="1" y2="1">
      <stop offset="0" stop-color="#030712"/>
      <stop offset="1" stop-color="#0b1220"/>
    </linearGradient>
    <radialGradient id="glow" cx="0.75" cy="0.28" r="0.55">
      <stop offset="0" stop-color="#f57c00" stop-opacity="0.30"/>
      <stop offset="1" stop-color="#f57c00" stop-opacity="0"/>
    </radialGradient>
    <radialGradient id="glowt" cx="0.2" cy="0.82" r="0.5">
      <stop offset="0" stop-color="#0dcaf0" stop-opacity="0.18"/>
      <stop offset="1" stop-color="#0dcaf0" stop-opacity="0"/>
    </radialGradient>
    <pattern id="grid" width="44" height="44" patternUnits="userSpaceOnUse">
      <path d="M44 0H0V44" fill="none" stroke="#0dcaf0" stroke-opacity="0.07" stroke-width="1"/>
    </pattern>
  </defs>
  <rect width="1200" height="630" fill="url(#bg)"/>
  <rect width="1200" height="630" fill="url(#grid)"/>
  <rect width="1200" height="630" fill="url(#glow)"/>
  <rect width="1200" height="630" fill="url(#glowt)"/>
  <rect x="14" y="14" width="1172" height="602" rx="18" fill="none" stroke="#0dcaf0" stroke-opacity="0.35" stroke-width="1.5"/>

  <text x="60" y="74" font-family="Segoe UI, Tahoma, Arial, sans-serif" font-size="34" font-weight="700" fill="#f57c00">FastFree</text>

  <g transform="translate(600 175)" stroke="#f57c00" stroke-width="3" fill="none" stroke-linecap="round" stroke-linejoin="round">
    <path d="M-44 14c0-22 16-38 44-38 28 0 44 16 44 38 0 30-44 54-88 78 0-30 0-50 0-78z"/>
    <path d="M-44 -2a22 22 0 0 1 44 0" stroke="#0dcaf0"/>
  </g>

  <text x="600" y="380" text-anchor="middle" font-family="Segoe UI, Tahoma, Arial, sans-serif" font-size="40" font-weight="700" fill="#f8fafc">Customer Retention:</text>
  <text x="600" y="432" text-anchor="middle" font-family="Segoe UI, Tahoma, Arial, sans-serif" font-size="34" font-weight="500" fill="#0dcaf0">Why Keeping Beats Acquiring</text>

  <g transform="translate(600 520)">
    <rect x="-150" y="-26" width="300" height="52" rx="26" fill="none" stroke="#0dcaf0" stroke-width="2"/>
    <text x="0" y="8" text-anchor="middle" font-family="Segoe UI, Tahoma, Arial, sans-serif" font-size="24" font-weight="600" letter-spacing="2" fill="#0dcaf0">DIGITAL_MARKETING</text>
  </g>
</svg>
