<svg xmlns="http://www.w3.org/2000/svg" viewBox="0 0 1200 630" width="1200" height="630" role="img" aria-label="فهم وحدات نظام ERP">
  <defs>
    <linearGradient id="bg6" x1="0" y1="0" x2="1" y2="1">
      <stop offset="0" stop-color="#030712"/>
      <stop offset="1" stop-color="#0b1220"/>
    </linearGradient>
    <radialGradient id="glow6" cx="0.78" cy="0.32" r="0.55">
      <stop offset="0" stop-color="#f57c00" stop-opacity="0.35"/>
      <stop offset="1" stop-color="#f57c00" stop-opacity="0"/>
    </radialGradient>
    <radialGradient id="glow6t" cx="0.18" cy="0.8" r="0.5">
      <stop offset="0" stop-color="#0dcaf0" stop-opacity="0.18"/>
      <stop offset="1" stop-color="#0dcaf0" stop-opacity="0"/>
    </radialGradient>
    <pattern id="grid6" width="40" height="40" patternUnits="userSpaceOnUse">
      <path d="M40 0H0V40" fill="none" stroke="#0dcaf0" stroke-opacity="0.07" stroke-width="1"/>
    </pattern>
  </defs>
  <rect width="1200" height="630" fill="url(#bg6)"/>
  <rect width="1200" height="630" fill="url(#grid6)"/>
  <rect width="1200" height="630" fill="url(#glow6)"/>
  <rect width="1200" height="630" fill="url(#glow6t)"/>
  <rect x="14" y="14" width="1172" height="602" rx="18" fill="none" stroke="#0dcaf0" stroke-opacity="0.35" stroke-width="1.5"/>

  <g transform="translate(560 150)" stroke="#f57c00" stroke-width="3" stroke-linecap="round" stroke-linejoin="round" fill="none">
    <rect x="-70" y="-70" width="58" height="58" rx="8"/>
    <rect x="12" y="-70" width="58" height="58" rx="8"/>
    <rect x="-70" y="12" width="58" height="58" rx="8"/>
    <rect x="12" y="12" width="58" height="58" rx="8"/>
    <path d="M-41-41h0M41-41h0M-41 41h0M41 41h0" stroke-width="2"/>
    <circle cx="-41" cy="-41" r="4" fill="#0dcaf0" stroke="none"/>
    <circle cx="41" cy="-41" r="4" fill="#0dcaf0" stroke="none"/>
    <circle cx="-41" cy="41" r="4" fill="#0dcaf0" stroke="none"/>
    <circle cx="41" cy="41" r="4" fill="#0dcaf0" stroke="none"/>
  </g>

  <text x="600" y="330" text-anchor="middle" direction="rtl" font-family="Cairo, Arial, sans-serif" font-size="46" font-weight="700" fill="#f57c00">فهم وحدات نظام ERP</text>
  <text x="600" y="392" text-anchor="middle" direction="rtl" font-family="Cairo, Arial, sans-serif" font-size="32" font-weight="500" fill="#0dcaf0">ماذا يفعل كل جزء لعملك</text>

  <g transform="translate(600 500)" stroke="#0dcaf0" stroke-width="2" fill="none" opacity="0.6">
    <line x1="-180" y1="0" x2="-40" y2="0"/>
    <line x1="40" y1="0" x2="180" y2="0"/>
    <circle cx="0" cy="0" r="5" fill="#f57c00" stroke="none"/>
  </g>
</svg>
