<svg xmlns="http://www.w3.org/2000/svg" viewBox="0 0 800 600" width="800" height="600" role="img" aria-label="FastFree Backend">
  <defs>
    <linearGradient id="fb-bg" x1="0" y1="0" x2="1" y2="1">
      <stop offset="0" stop-color="#0b1220"/>
      <stop offset="1" stop-color="#030712"/>
    </linearGradient>
    <radialGradient id="fb-glow" cx="0.5" cy="0.42" r="0.5">
      <stop offset="0" stop-color="#34d399" stop-opacity="0.40"/>
      <stop offset="0.6" stop-color="#34d399" stop-opacity="0.08"/>
      <stop offset="1" stop-color="#34d399" stop-opacity="0"/>
    </radialGradient>
    <pattern id="fb-dots" width="28" height="28" patternUnits="userSpaceOnUse">
      <circle cx="2" cy="2" r="1.4" fill="#34d399" fill-opacity="0.12"/>
    </pattern>
  </defs>

  <rect x="0" y="0" width="800" height="600" rx="18" fill="url(#fb-bg)"/>
  <rect x="0" y="0" width="800" height="600" rx="18" fill="url(#fb-dots)"/>
  <rect x="0" y="0" width="800" height="600" rx="18" fill="url(#fb-glow)"/>
  <rect x="6" y="6" width="788" height="588" rx="14" fill="none" stroke="#34d399" stroke-opacity="0.35" stroke-width="1.5"/>

  <g stroke="#34d399" stroke-opacity="0.16" stroke-width="1.5">
    <line x1="60" y1="120" x2="740" y2="120"/>
    <line x1="60" y1="330" x2="740" y2="330"/>
    <line x1="120" y1="40" x2="120" y2="380"/>
    <line x1="680" y1="40" x2="680" y2="380"/>
  </g>

  <g transform="translate(400 195)" fill="none" stroke="#34d399" stroke-width="4" stroke-linecap="round" stroke-linejoin="round">
    <path d="M0 -85 L120 -35 L0 15 L-120 -35 Z"/>
    <path d="M-120 -15 L0 35 L120 -15" opacity="0.75"/>
    <path d="M-120 15 L0 65 L120 15" opacity="0.5"/>
    <path d="M-120 45 L0 95 L120 45" opacity="0.3"/>
    <line x1="155" y1="-60" x2="155" y2="90" opacity="0.6"/>
    <line x1="-155" y1="-60" x2="-155" y2="90" opacity="0.6"/>
    <circle cx="155" cy="-60" r="5" fill="#030712"/>
    <circle cx="155" cy="90" r="5" fill="#030712"/>
    <circle cx="-155" cy="-60" r="5" fill="#030712"/>
    <circle cx="-155" cy="90" r="5" fill="#030712"/>
  </g>

  <g transform="translate(400 322)">
    <circle cx="0" cy="0" r="26" fill="#030712" stroke="#34d399" stroke-width="3"/>
    <text x="0" y="8" text-anchor="middle" font-family="Arial, sans-serif" font-size="22" font-weight="700" fill="#34d399">BE</text>
  </g>

  <text x="400" y="425" text-anchor="middle" font-family="Cairo, Arial, sans-serif" font-size="40" font-weight="700" fill="#34d399">FastFree Backend</text>
  <text x="400" y="473" text-anchor="middle" font-family="Cairo, Arial, sans-serif" font-size="30" font-weight="600" fill="#e2e8f0">فاست فري باك إند</text>
</svg>
